<svg width="188" height="72" viewBox="0 0 188 72" fill="none" xmlns="http://www.w3.org/2000/svg">
<path d="M124.369 29.9375C124.514 29.5 124.744 29.125 125.056 28.8125C125.389 28.5 125.744 28.2396 126.119 28.0312C126.514 27.8021 126.921 27.6146 127.337 27.4687C127.754 27.3229 128.15 27.1979 128.525 27.0937C129.358 26.7396 130.244 26.4062 131.181 26.0937C132.139 25.7604 133.108 25.4687 134.087 25.2187C135.087 24.9687 136.108 24.8125 137.15 24.75C138.192 24.6667 139.285 24.7917 140.431 25.125C140.494 25.3333 140.587 25.5312 140.712 25.7187C140.837 25.9062 140.962 26.0937 141.087 26.2812C141.233 26.4687 141.358 26.6562 141.462 26.8437C141.567 27.0104 141.629 27.1875 141.65 27.375C141.858 27.5625 142.025 27.7708 142.15 28C142.275 28.2083 142.296 28.4896 142.212 28.8437C142.004 29.0104 141.796 29.1667 141.587 29.3125C141.4 29.4375 141.192 29.5521 140.962 29.6562C140.192 29.4687 139.41 29.4062 138.619 29.4687C137.827 29.5312 137.119 29.5833 136.494 29.625C136.306 29.4375 136.077 29.3437 135.806 29.3437C135.556 29.3437 135.285 29.3854 134.994 29.4687C134.723 29.5521 134.442 29.6354 134.15 29.7187C133.879 29.8021 133.619 29.8229 133.369 29.7812C133.16 29.9479 132.9 30.0625 132.587 30.125C132.296 30.1667 131.973 30.2083 131.619 30.25C131.598 30.3542 131.619 30.4271 131.681 30.4687C131.744 30.4896 131.754 30.5521 131.712 30.6562C131.837 30.8021 131.994 30.9062 132.181 30.9687C132.389 31.0312 132.598 31.0937 132.806 31.1562C133.035 31.2187 133.233 31.3021 133.4 31.4062C133.567 31.4896 133.681 31.6354 133.744 31.8437C134.056 31.8437 134.327 31.9167 134.556 32.0625C134.785 32.2083 134.973 32.3854 135.119 32.5937C135.264 32.8021 135.369 33.0312 135.431 33.2812C135.514 33.5104 135.556 33.7187 135.556 33.9062C135.619 34.0729 135.692 34.1458 135.775 34.125C135.858 34.1042 135.952 34.1458 136.056 34.25C136.119 34.5208 136.275 34.8021 136.525 35.0937C136.775 35.3646 136.973 35.6667 137.119 36C137.16 36.5208 137.192 36.9896 137.212 37.4062C137.233 37.8021 137.16 38.2083 136.994 38.625C136.681 39.3958 136.244 40.0833 135.681 40.6875C135.139 41.2917 134.514 41.8333 133.806 42.3125C133.119 42.7708 132.379 43.1667 131.587 43.5C130.796 43.8333 130.025 44.1146 129.275 44.3437C129.192 44.3229 129.108 44.3229 129.025 44.3437C128.942 44.3646 128.921 44.3125 128.962 44.1875C128.796 44.3333 128.608 44.4271 128.4 44.4687C128.212 44.5104 128.004 44.5208 127.775 44.5C127.546 44.5 127.306 44.4896 127.056 44.4687C126.827 44.4479 126.608 44.4583 126.4 44.5C126.254 44.3542 126.119 44.2083 125.994 44.0625C125.889 43.9375 125.806 43.7708 125.744 43.5625C125.639 43.5625 125.587 43.5104 125.587 43.4062C125.608 43.3021 125.577 43.25 125.494 43.25C125.619 43.0417 125.671 42.9271 125.65 42.9062C125.65 42.8646 125.619 42.8333 125.556 42.8125C125.514 42.7917 125.473 42.7708 125.431 42.75C125.389 42.7083 125.379 42.6562 125.4 42.5937C125.483 42.4271 125.514 42.2396 125.494 42.0312C125.473 41.8021 125.452 41.5729 125.431 41.3437C125.41 41.1146 125.421 40.8958 125.462 40.6875C125.525 40.4792 125.681 40.3125 125.931 40.1875C126.639 40.2708 127.306 40.25 127.931 40.125C128.577 39.9792 129.181 39.7812 129.744 39.5312C130.306 39.2812 130.837 39.0104 131.337 38.7187C131.858 38.4271 132.369 38.1667 132.869 37.9375C132.931 37.75 133.014 37.5937 133.119 37.4687C133.244 37.3437 133.369 37.2292 133.494 37.125C133.619 37.0208 133.733 36.9062 133.837 36.7812C133.942 36.6562 134.014 36.5 134.056 36.3125C134.077 36.1667 134.035 36.0833 133.931 36.0625C133.848 36.0208 133.806 35.9375 133.806 35.8125L133.462 35.7187C133.067 35.4896 132.619 35.3021 132.119 35.1562C131.619 34.9896 131.192 34.8125 130.837 34.625C130.608 34.75 130.389 34.7812 130.181 34.7187C129.994 34.6562 129.744 34.5937 129.431 34.5312C128.723 34.4896 128.035 34.4167 127.369 34.3125C126.723 34.2083 126.098 34.0208 125.494 33.75C125.452 33.6458 125.4 33.5521 125.337 33.4687C125.275 33.3854 125.16 33.3646 124.994 33.4062C124.869 33.2396 124.744 33.0833 124.619 32.9375C124.494 32.7708 124.379 32.5937 124.275 32.4062C124.317 32.1562 124.348 31.9479 124.369 31.7812C124.389 31.5937 124.327 31.4167 124.181 31.25C124.264 30.9792 124.327 30.7604 124.369 30.5937C124.41 30.4271 124.41 30.2083 124.369 29.9375Z" fill="white" stroke="#111111" stroke-width="2"/>
<path d="M108.925 29.9375C109.071 29.5 109.3 29.125 109.612 28.8125C109.946 28.5 110.3 28.2396 110.675 28.0312C111.071 27.8021 111.477 27.6146 111.894 27.4687C112.31 27.3229 112.706 27.1979 113.081 27.0937C113.914 26.7396 114.8 26.4062 115.737 26.0937C116.696 25.7604 117.664 25.4687 118.644 25.2187C119.644 24.9687 120.664 24.8125 121.706 24.75C122.748 24.6667 123.841 24.7917 124.987 25.125C125.05 25.3333 125.144 25.5312 125.269 25.7187C125.394 25.9062 125.519 26.0937 125.644 26.2812C125.789 26.4687 125.914 26.6562 126.019 26.8437C126.123 27.0104 126.185 27.1875 126.206 27.375C126.414 27.5625 126.581 27.7708 126.706 28C126.831 28.2083 126.852 28.4896 126.769 28.8437C126.56 29.0104 126.352 29.1667 126.144 29.3125C125.956 29.4375 125.748 29.5521 125.519 29.6562C124.748 29.4687 123.966 29.4062 123.175 29.4687C122.383 29.5312 121.675 29.5833 121.05 29.625C120.862 29.4375 120.633 29.3437 120.362 29.3437C120.112 29.3437 119.841 29.3854 119.55 29.4687C119.279 29.5521 118.998 29.6354 118.706 29.7187C118.435 29.8021 118.175 29.8229 117.925 29.7812C117.716 29.9479 117.456 30.0625 117.144 30.125C116.852 30.1667 116.529 30.2083 116.175 30.25C116.154 30.3542 116.175 30.4271 116.237 30.4687C116.3 30.4896 116.31 30.5521 116.269 30.6562C116.394 30.8021 116.55 30.9062 116.737 30.9687C116.946 31.0312 117.154 31.0937 117.362 31.1562C117.591 31.2187 117.789 31.3021 117.956 31.4062C118.123 31.4896 118.237 31.6354 118.3 31.8437C118.612 31.8437 118.883 31.9167 119.112 32.0625C119.341 32.2083 119.529 32.3854 119.675 32.5937C119.821 32.8021 119.925 33.0312 119.987 33.2812C120.071 33.5104 120.112 33.7187 120.112 33.9062C120.175 34.0729 120.248 34.1458 120.331 34.125C120.414 34.1042 120.508 34.1458 120.612 34.25C120.675 34.5208 120.831 34.8021 121.081 35.0937C121.331 35.3646 121.529 35.6667 121.675 36C121.716 36.5208 121.748 36.9896 121.769 37.4062C121.789 37.8021 121.716 38.2083 121.55 38.625C121.237 39.3958 120.8 40.0833 120.237 40.6875C119.696 41.2917 119.071 41.8333 118.362 42.3125C117.675 42.7708 116.935 43.1667 116.144 43.5C115.352 43.8333 114.581 44.1146 113.831 44.3437C113.748 44.3229 113.664 44.3229 113.581 44.3437C113.498 44.3646 113.477 44.3125 113.519 44.1875C113.352 44.3333 113.164 44.4271 112.956 44.4687C112.769 44.5104 112.56 44.5208 112.331 44.5C112.102 44.5 111.862 44.4896 111.612 44.4687C111.383 44.4479 111.164 44.4583 110.956 44.5C110.81 44.3542 110.675 44.2083 110.55 44.0625C110.446 43.9375 110.362 43.7708 110.3 43.5625C110.196 43.5625 110.144 43.5104 110.144 43.4062C110.164 43.3021 110.133 43.25 110.05 43.25C110.175 43.0417 110.227 42.9271 110.206 42.9062C110.206 42.8646 110.175 42.8333 110.112 42.8125C110.071 42.7917 110.029 42.7708 109.987 42.75C109.946 42.7083 109.935 42.6562 109.956 42.5937C110.039 42.4271 110.071 42.2396 110.05 42.0312C110.029 41.8021 110.008 41.5729 109.987 41.3437C109.966 41.1146 109.977 40.8958 110.019 40.6875C110.081 40.4792 110.237 40.3125 110.487 40.1875C111.196 40.2708 111.862 40.25 112.487 40.125C113.133 39.9792 113.737 39.7812 114.3 39.5312C114.862 39.2812 115.394 39.0104 115.894 38.7187C116.414 38.4271 116.925 38.1667 117.425 37.9375C117.487 37.75 117.571 37.5937 117.675 37.4687C117.8 37.3437 117.925 37.2292 118.05 37.125C118.175 37.0208 118.289 36.9062 118.394 36.7812C118.498 36.6562 118.571 36.5 118.612 36.3125C118.633 36.1667 118.591 36.0833 118.487 36.0625C118.404 36.0208 118.362 35.9375 118.362 35.8125L118.019 35.7187C117.623 35.4896 117.175 35.3021 116.675 35.1562C116.175 34.9896 115.748 34.8125 115.394 34.625C115.164 34.75 114.946 34.7812 114.737 34.7187C114.55 34.6562 114.3 34.5937 113.987 34.5312C113.279 34.4896 112.591 34.4167 111.925 34.3125C111.279 34.2083 110.654 34.0208 110.05 33.75C110.008 33.6458 109.956 33.5521 109.894 33.4687C109.831 33.3854 109.716 33.3646 109.55 33.4062C109.425 33.2396 109.3 33.0833 109.175 32.9375C109.05 32.7708 108.935 32.5937 108.831 32.4062C108.873 32.1562 108.904 31.9479 108.925 31.7812C108.946 31.5937 108.883 31.4167 108.737 31.25C108.821 30.9792 108.883 30.7604 108.925 30.5937C108.966 30.4271 108.966 30.2083 108.925 29.9375Z" fill="white" stroke="#111111" stroke-width="2"/>
<path d="M104.2 41.8125C104.304 42.4375 104.262 42.9271 104.075 43.2812C103.908 43.6354 103.658 43.8958 103.325 44.0625C103.012 44.25 102.648 44.3542 102.231 44.375C101.814 44.3958 101.418 44.375 101.043 44.3125C100.835 44.0208 100.648 43.6562 100.481 43.2188C100.314 42.7812 100.158 42.3333 100.012 41.875C99.8664 41.3958 99.731 40.9271 99.606 40.4688C99.5018 40.0104 99.408 39.6042 99.3247 39.25C99.4289 39 99.4914 38.7188 99.5122 38.4062C99.5539 38.0729 99.5747 37.7396 99.5747 37.4062C99.5955 37.0729 99.606 36.7396 99.606 36.4062C99.6268 36.0521 99.658 35.7188 99.6997 35.4062C99.8455 34.5312 100.054 33.6979 100.325 32.9062C100.616 32.1146 100.846 31.2917 101.012 30.4375C101.054 30.25 101.033 30.0729 100.95 29.9062C100.887 29.7396 100.877 29.5833 100.918 29.4375C100.939 29.3542 101.002 29.3021 101.106 29.2812C101.21 29.2396 101.273 29.1667 101.293 29.0625C101.356 28.8333 101.366 28.6458 101.325 28.5C101.304 28.3542 101.346 28.1771 101.45 27.9688C101.554 27.8021 101.679 27.5625 101.825 27.25C101.991 26.9167 102.054 26.5729 102.012 26.2188C102.2 26.0938 102.377 25.9479 102.543 25.7812C102.71 25.6146 102.877 25.4688 103.043 25.3438C103.231 25.1979 103.429 25.0729 103.637 24.9688C103.866 24.8646 104.137 24.8125 104.45 24.8125C104.616 25.0208 104.721 25.25 104.762 25.5C104.825 25.75 104.877 26 104.918 26.25C104.981 26.5 105.064 26.7396 105.168 26.9688C105.273 27.1771 105.45 27.3438 105.7 27.4688C105.7 27.6354 105.7 27.8438 105.7 28.0938C105.7 28.3438 105.71 28.5938 105.731 28.8438C105.752 29.0729 105.793 29.2917 105.856 29.5C105.939 29.6875 106.064 29.8125 106.231 29.875C105.856 30.875 105.502 31.8646 105.168 32.8438C104.856 33.8229 104.596 34.8125 104.387 35.8125C104.179 36.7917 104.043 37.7812 103.981 38.7812C103.939 39.7812 104.012 40.7917 104.2 41.8125Z" fill="white" stroke="#111111" stroke-width="2"/>
<path d="M91.8496 38.5C91.8288 38.7917 91.7559 39.0729 91.6309 39.3438C91.5267 39.5938 91.3913 39.8438 91.2246 40.0938C91.0579 40.3229 90.8704 40.5521 90.6621 40.7812C90.4746 40.9896 90.2871 41.1771 90.0996 41.3438C90.1621 41.6146 90.1621 41.8229 90.0996 41.9688C90.0579 42.0938 90.0475 42.2917 90.0684 42.5625C89.7559 43.3958 89.2767 43.9479 88.6309 44.2188C88.0059 44.5104 87.4121 44.4583 86.8496 44.0625C86.6204 43.8958 86.4225 43.6875 86.2559 43.4375C86.11 43.1667 85.9017 43 85.6309 42.9375C85.6934 42.5833 85.6621 42.2292 85.5371 41.875C85.4121 41.5208 85.2767 41.3333 85.1309 41.3125C85.0684 40.875 84.9746 40.4062 84.8496 39.9062C84.7246 39.4062 84.61 38.9062 84.5059 38.4062C84.4017 37.8854 84.3079 37.3854 84.2246 36.9062C84.1621 36.4062 84.1413 35.9479 84.1621 35.5312C84.1829 35.3229 84.1413 35.1354 84.0371 34.9688C83.9538 34.8021 83.8913 34.6042 83.8496 34.375C83.7663 33.8958 83.735 33.3958 83.7559 32.875C83.7975 32.3333 83.8184 31.8229 83.8184 31.3438C83.8184 30.8854 83.7871 30.3958 83.7246 29.875C83.6829 29.3333 83.6413 28.8229 83.5996 28.3438C83.5579 27.8438 83.5371 27.3958 83.5371 27C83.5371 26.5833 83.5892 26.2604 83.6934 26.0312C83.8184 25.7812 83.985 25.5833 84.1934 25.4375C84.4225 25.2708 84.6309 25.0938 84.8184 24.9062C85.2767 24.9479 85.6413 25.1354 85.9121 25.4688C86.1829 25.8021 86.2871 26.1146 86.2246 26.4062C86.6621 26.6771 87.0059 27.0312 87.2559 27.4688C87.5267 27.8854 87.735 28.3646 87.8809 28.9062C88.0475 29.4271 88.1621 29.9896 88.2246 30.5938C88.2871 31.1771 88.3392 31.7604 88.3809 32.3438C88.4225 32.9062 88.4642 33.4479 88.5059 33.9688C88.5475 34.4896 88.6309 34.9375 88.7559 35.3125C89.5267 34.2083 90.1725 33.2292 90.6934 32.375C91.2142 31.5 91.7454 30.6667 92.2871 29.875C92.8288 29.0833 93.4329 28.2812 94.0996 27.4688C94.7663 26.6562 95.6309 25.7396 96.6934 24.7188C96.9017 24.7396 97.0684 24.7812 97.1934 24.8438C97.3392 24.9062 97.4642 24.9583 97.5684 25C97.6725 25.0417 97.7975 25.0833 97.9434 25.125C98.0892 25.1458 98.2871 25.1354 98.5371 25.0938C98.6204 25.3021 98.6829 25.4583 98.7246 25.5625C98.7663 25.6458 98.7975 25.7396 98.8184 25.8438C98.86 25.9271 98.9017 26.0417 98.9434 26.1875C99.0059 26.3333 99.0996 26.5417 99.2246 26.8125C99.2871 26.875 99.3079 26.9583 99.2871 27.0625C99.2663 27.1667 99.2454 27.2708 99.2246 27.375C99.2246 27.4583 99.2246 27.5208 99.2246 27.5625C99.2246 27.6042 99.2767 27.6042 99.3809 27.5625C99.3184 27.8542 99.2038 28.125 99.0371 28.375C98.8913 28.6042 98.8288 28.8854 98.8496 29.2188C98.3704 29.8438 97.8392 30.4896 97.2559 31.1562C96.6934 31.8229 96.1204 32.5104 95.5371 33.2188C94.9746 33.9271 94.4329 34.6771 93.9121 35.4688C93.3913 36.2396 92.9434 37.0521 92.5684 37.9062C92.4642 37.9062 92.3809 37.9375 92.3184 38C92.2767 38.0625 92.235 38.1354 92.1934 38.2188C92.1517 38.2812 92.0996 38.3438 92.0371 38.4062C91.9954 38.4688 91.9329 38.5 91.8496 38.5Z" fill="white" stroke="#111111" stroke-width="2"/>
<path d="M56.6248 38.2812C56.6457 38.1979 56.6561 38.1354 56.6561 38.0938C56.6769 38.0521 56.6457 38 56.5623 37.9375C56.5207 37.7917 56.5519 37.6979 56.6561 37.6562C56.7603 37.6146 56.8644 37.5729 56.9686 37.5312C57.0728 36.2812 57.2811 35.1458 57.5936 34.125C57.9269 33.0833 58.2811 32.0729 58.6561 31.0938C59.0519 30.1146 59.4373 29.1354 59.8123 28.1562C60.2082 27.1562 60.5311 26.0729 60.7811 24.9062C61.0519 24.6354 61.2707 24.3125 61.4373 23.9375C61.6248 23.5625 61.8019 23.1875 61.9686 22.8125C62.1561 22.4167 62.3644 22.0417 62.5936 21.6875C62.8436 21.3333 63.1769 21.0417 63.5936 20.8125C63.7811 20.8333 63.9478 20.875 64.0936 20.9375C64.2603 20.9792 64.4165 21.0312 64.5623 21.0938C64.7082 21.1562 64.8644 21.2083 65.0311 21.25C65.1978 21.2917 65.3748 21.3125 65.5623 21.3125C65.6457 21.4167 65.7186 21.5417 65.7811 21.6875C65.8436 21.8125 65.9269 21.9271 66.0311 22.0312L66.5936 21.9375C66.8644 22.1667 67.104 22.4583 67.3123 22.8125C67.5207 23.1458 67.6665 23.5 67.7498 23.875C67.8332 24.2292 67.8228 24.5833 67.7186 24.9375C67.6144 25.2708 67.3748 25.5312 66.9998 25.7188C67.0207 25.8438 67.0207 25.9375 66.9998 26C66.979 26.0625 66.9478 26.125 66.9061 26.1875C66.8853 26.2292 66.8748 26.2812 66.8748 26.3438C66.8748 26.3854 66.9165 26.4479 66.9998 26.5312C66.7707 26.7188 66.5623 26.9583 66.3748 27.25C66.1873 27.5208 66.0311 27.8125 65.9061 28.125C65.7811 28.4375 65.6769 28.75 65.5936 29.0625C65.5311 29.375 65.4894 29.6667 65.4686 29.9375C66.0728 29.3125 66.7811 28.7292 67.5936 28.1875C68.4061 27.6458 69.1144 27.1354 69.7186 26.6562C70.1978 26.3229 70.6144 26.0104 70.9686 25.7188C71.3436 25.4062 71.7186 25.125 72.0936 24.875C72.4686 24.6042 72.854 24.3542 73.2498 24.125C73.6665 23.875 74.0832 23.6042 74.4998 23.3125C74.7082 23.2292 74.8644 23.2083 74.9686 23.25C75.0936 23.2917 75.2082 23.3438 75.3123 23.4062C75.3332 23.2604 75.3019 23.1771 75.2186 23.1562C75.1353 23.1146 75.104 23.0104 75.1248 22.8438C75.479 22.7396 75.7915 22.6146 76.0623 22.4688C76.354 22.3229 76.6561 22.1875 76.9686 22.0625C77.1769 22.2917 77.3853 22.5417 77.5936 22.8125C77.8019 23.0625 78.0832 23.1979 78.4373 23.2188C78.5623 23.4896 78.7082 23.6979 78.8748 23.8438C79.0623 23.9688 79.2394 24.0938 79.4061 24.2188C79.5936 24.3438 79.7498 24.5 79.8748 24.6875C79.9998 24.8542 80.0728 25.125 80.0936 25.5C80.0103 25.6667 79.9061 25.8542 79.7811 26.0625C79.6769 26.25 79.5832 26.4896 79.4998 26.7812C78.9998 27.2396 78.4894 27.6458 77.9686 28C77.4686 28.3333 76.9478 28.6562 76.4061 28.9688C75.8853 29.2812 75.3436 29.6042 74.7811 29.9375C74.2394 30.2708 73.6873 30.6562 73.1248 31.0938C72.9998 31.2812 72.8436 31.4479 72.6561 31.5938C72.4686 31.7396 72.2707 31.8854 72.0623 32.0312C71.8748 32.1562 71.6873 32.2917 71.4998 32.4375C71.3332 32.5833 71.1978 32.7604 71.0936 32.9688C71.0103 32.9688 70.9373 32.9792 70.8748 33C70.8123 33 70.7394 33.0104 70.6561 33.0312C70.5728 33.1979 70.4478 33.3333 70.2811 33.4375C70.1353 33.5417 70.0311 33.6771 69.9686 33.8438C70.3436 34.6562 70.8332 35.2708 71.4373 35.6875C72.0415 36.1042 72.7186 36.4062 73.4686 36.5938C74.2186 36.7812 75.0311 36.8854 75.9061 36.9062C76.7811 36.9271 77.6873 36.9375 78.6248 36.9375C78.729 36.9167 78.7707 36.8646 78.7498 36.7812C78.7498 36.6771 78.8123 36.6354 78.9373 36.6562C79.2498 36.7604 79.5103 36.8854 79.7186 37.0312C79.9269 37.1771 80.1248 37.3333 80.3123 37.5C80.4998 37.6667 80.6769 37.8438 80.8436 38.0312C81.0311 38.1979 81.2394 38.375 81.4686 38.5625C81.4269 39.5417 81.1353 40.3438 80.5936 40.9688C80.0728 41.5729 79.3748 42.0625 78.4998 42.4375C77.2915 42.4792 76.2394 42.4479 75.3436 42.3438C74.4478 42.2396 73.5623 42.0104 72.6873 41.6562C72.6248 41.6354 72.5623 41.5729 72.4998 41.4688C72.4582 41.3646 72.4165 41.2917 72.3748 41.25C72.2082 41.1458 72.0207 41.1042 71.8123 41.125C71.604 41.1458 71.4269 41.125 71.2811 41.0625C71.0936 40.9792 70.7811 40.7917 70.3436 40.5C69.9269 40.2083 69.5415 39.9375 69.1873 39.6875C68.7498 39.3333 68.3228 38.9896 67.9061 38.6562C67.5103 38.3021 67.1561 37.9167 66.8436 37.5C66.7811 37.3958 66.6873 37.3438 66.5623 37.3438C66.4582 37.3438 66.354 37.3125 66.2498 37.25C65.5207 37.7083 64.9061 38.2812 64.4061 38.9688C63.9269 39.6354 63.4582 40.3229 62.9998 41.0312C62.5415 41.7188 62.0519 42.375 61.5311 43C61.0311 43.6042 60.3957 44.0729 59.6248 44.4062C59.3957 44.4062 59.1978 44.3646 59.0311 44.2812C58.8644 44.2188 58.7082 44.125 58.5623 44C58.4165 43.8958 58.2707 43.7917 58.1248 43.6875C57.979 43.5833 57.8123 43.5104 57.6248 43.4688C57.6248 43.1771 57.5623 42.9062 57.4373 42.6562C57.3332 42.3854 57.2186 42.1458 57.0936 41.9375C56.9894 41.7083 56.9061 41.4896 56.8436 41.2812C56.8019 41.0729 56.8644 40.8646 57.0311 40.6562C56.8019 40.4688 56.5832 40.3125 56.3748 40.1875C56.5207 40.0417 56.5832 39.9062 56.5623 39.7812C56.5623 39.6562 56.5311 39.5312 56.4686 39.4062C56.4061 39.2812 56.354 39.1562 56.3123 39.0312C56.2915 38.8854 56.3332 38.7292 56.4373 38.5625C56.5207 38.5417 56.5519 38.5 56.5311 38.4375C56.5311 38.375 56.5623 38.3229 56.6248 38.2812Z" fill="white" stroke="#111111" stroke-width="2"/>
<g clip-path="url(#clip0_98_380)">
<path d="M152.19 14.4881L156.646 7.56959L158.804 4.22331C159.564 3.04511 160.416 1.88844 161.075 0.651072C161.316 0.204543 160.866 0.0162475 160.48 0.000107898C159.977 -0.0214116 159.34 0.188403 159.029 0.602653C158.177 1.73243 157.465 2.98594 156.699 4.17489L154.541 7.52117L150.08 14.4397C149.791 14.8862 150.332 15.0906 150.696 15.1068C151.184 15.1283 151.907 14.9239 152.19 14.4827V14.4881Z" fill="#0D0C22"/>
<path d="M160.732 22.0521C169.509 19.1631 178.318 16.3548 187.063 13.3636C187.368 13.2614 188.107 12.9978 187.989 12.5405C187.872 12.1047 187.068 12.2015 186.779 12.293C177.97 15.0798 169.214 18.0441 160.437 20.9385C160.116 21.0461 159.345 21.3204 159.473 21.7992C159.591 22.2511 160.437 22.1597 160.737 22.0575L160.732 22.0521Z" fill="#0D0C22"/>
<path d="M158.943 32.1394L165.782 36.524L169.145 38.6813C170.301 39.4237 171.442 40.2361 172.647 40.8924C173.059 41.113 173.697 40.9462 174.077 40.7472C174.275 40.6449 174.901 40.2038 174.537 39.9294C173.434 39.0955 172.219 38.3961 171.057 37.6537L167.693 35.4964L160.743 31.0365C160.121 30.6384 158.027 31.553 158.938 32.1394H158.943Z" fill="#0D0C22"/>
</g>
<g clip-path="url(#clip1_98_380)">
<path d="M36.1077 32.4256C27.5107 34.041 18.9894 36.0201 10.5289 38.2719C9.87677 38.4438 9.9803 37.5876 10.1241 37.2375C10.3825 36.6154 10.9593 36.0967 11.5978 35.9182C20.0434 33.5585 28.6024 31.6228 37.2127 29.9971C37.8857 29.8687 37.7948 30.664 37.628 31.0617C37.376 31.6533 36.7604 32.3043 36.1077 32.4256V32.4256Z" fill="#0D0C22"/>
<path d="M36.7772 41.3575C33.5644 43.2975 30.3516 45.2374 27.1353 47.1673C26.7572 47.3959 26.0781 47.5716 26.0662 46.9198C26.0544 46.268 26.6458 45.5802 27.1477 45.2686C30.3603 43.3118 33.5696 41.3617 36.7889 39.4082C37.1772 39.176 37.8764 38.9933 37.8885 39.6619C37.9006 40.3306 37.2993 41.0389 36.7805 41.3507L36.7772 41.3575Z" fill="#0D0C22"/>
<path d="M40.2475 51.1627C34.9493 56.6607 29.6614 62.172 24.3429 67.6602C24.0534 67.9652 23.324 68.6788 22.8635 68.2803C22.4268 67.9018 22.9852 67.0049 23.2547 66.7239C28.5358 61.2093 33.834 55.7113 39.1355 50.2065C39.435 49.898 40.1743 49.164 40.6451 49.5758C41.0885 49.9576 40.5203 50.8749 40.2374 51.1663L40.2475 51.1627Z" fill="#0D0C22"/>
</g>
<defs>
<clipPath id="clip0_98_380">
<rect width="38" height="41" fill="white" transform="translate(150)"/>
</clipPath>
<clipPath id="clip1_98_380">
<rect width="40.8432" height="33.2796" fill="white" transform="matrix(-0.434636 0.900606 0.900606 0.434636 18.125 20.6595)"/>
</clipPath>
</defs>
</svg>
