<svg width="46" height="161" viewBox="0 0 46 161" fill="none" xmlns="http://www.w3.org/2000/svg">
<g clip-path="url(#clip0_6_1344)">
<path d="M22.6224 4.74276C30.8585 10.958 40.5892 18.1514 42.5498 29.0023C44.6365 40.5639 34.5708 48.8689 26.6445 55.4756C18.7182 62.0822 9.57948 69.1223 4.65553 78.9554C2.34013 83.5828 1.11215 88.6862 1.39377 93.8678C1.71165 99.7296 3.8711 105.312 6.33224 110.585C11.9364 122.616 18.7237 134.073 26.505 144.816C26.9417 145.419 27.5925 145.272 27.836 144.633C28.1202 143.875 27.8867 142.684 27.4302 142.041C20.5331 132.373 14.3989 122.159 9.21743 111.471C6.72563 106.317 4.12521 100.913 3.69694 95.1204C3.31527 89.9482 5.02319 84.8575 7.54765 80.4013C13.1215 70.5917 22.5773 64.0834 30.8973 56.8089C34.9768 53.2512 39.0678 49.4335 41.8934 44.7689C44.719 40.1044 45.5882 34.779 44.6672 29.4839C42.457 16.7416 32.482 8.50684 22.7222 1.14325C21.9852 0.579203 21.6095 1.61716 21.5764 2.18699C21.5216 3.0667 21.8954 4.19876 22.6124 4.7427L22.6224 4.74276Z" fill="black"/>
<path d="M23.7917 127.151C25.924 132.213 27.9862 137.304 29.9681 142.425C30.9345 144.91 31.8709 147.406 32.7972 149.901C33.2701 151.193 33.7431 152.476 34.206 153.768C34.5409 154.7 34.9167 155.482 34.3717 156.389L35.4132 156.115C32.4144 154.059 30.1398 151.246 27.8751 148.444C25.6104 145.641 23.2564 142.718 20.8416 139.945C16.0716 134.459 10.8702 129.23 4.66123 125.366C3.87393 124.872 3.50894 125.78 3.47533 126.44C3.43062 127.299 3.78365 128.571 4.55085 129.086C10.6785 133.189 15.8902 138.368 20.6897 143.944C23.0347 146.677 25.2894 149.479 27.5541 152.272C29.8189 155.064 32.2433 157.908 35.2921 159.964C35.7205 160.257 36.0913 160.109 36.3336 159.69C37.7469 157.278 36.673 154.322 35.8062 151.927C34.7323 148.971 33.6285 146.015 32.5046 143.079C30.2568 137.196 27.8988 131.353 25.4505 125.55C25.2136 124.989 24.5495 123.905 23.8265 124.461C23.1034 125.017 23.5151 126.539 23.7717 127.151L23.7917 127.151Z" fill="black"/>
</g>
<defs>
<clipPath id="clip0_6_1344">
<rect width="159.07" height="43.34" fill="white" transform="translate(45.1927 1.10632) rotate(90.3139)"/>
</clipPath>
</defs>
</svg>
