<svg width="90" height="27" viewBox="0 0 90 27" fill="none" xmlns="http://www.w3.org/2000/svg">
<path d="M70.3687 10.9375C70.5145 10.5 70.7437 10.125 71.0562 9.8125C71.3895 9.5 71.7437 9.23958 72.1187 9.03125C72.5145 8.80208 72.9207 8.61458 73.3374 8.46875C73.7541 8.32292 74.1499 8.19792 74.5249 8.09375C75.3582 7.73958 76.2437 7.40625 77.1812 7.09375C78.1395 6.76042 79.1082 6.46875 80.0874 6.21875C81.0874 5.96875 82.1082 5.8125 83.1499 5.75C84.1916 5.66667 85.2853 5.79167 86.4312 6.125C86.4937 6.33333 86.5874 6.53125 86.7124 6.71875C86.8374 6.90625 86.9624 7.09375 87.0874 7.28125C87.2332 7.46875 87.3582 7.65625 87.4624 7.84375C87.5666 8.01042 87.6291 8.1875 87.6499 8.375C87.8582 8.5625 88.0249 8.77083 88.1499 9C88.2749 9.20833 88.2957 9.48958 88.2124 9.84375C88.0041 10.0104 87.7957 10.1667 87.5874 10.3125C87.3999 10.4375 87.1916 10.5521 86.9624 10.6562C86.1916 10.4687 85.4103 10.4062 84.6187 10.4687C83.827 10.5312 83.1187 10.5833 82.4937 10.625C82.3062 10.4375 82.077 10.3437 81.8062 10.3437C81.5562 10.3437 81.2853 10.3854 80.9937 10.4687C80.7228 10.5521 80.4416 10.6354 80.1499 10.7187C79.8791 10.8021 79.6187 10.8229 79.3687 10.7812C79.1603 10.9479 78.8999 11.0625 78.5874 11.125C78.2957 11.1667 77.9728 11.2083 77.6187 11.25C77.5978 11.3542 77.6187 11.4271 77.6812 11.4687C77.7437 11.4896 77.7541 11.5521 77.7124 11.6562C77.8374 11.8021 77.9937 11.9062 78.1812 11.9687C78.3895 12.0312 78.5978 12.0937 78.8062 12.1562C79.0353 12.2187 79.2332 12.3021 79.3999 12.4062C79.5666 12.4896 79.6812 12.6354 79.7437 12.8437C80.0562 12.8437 80.327 12.9167 80.5562 13.0625C80.7853 13.2083 80.9728 13.3854 81.1187 13.5937C81.2645 13.8021 81.3687 14.0312 81.4312 14.2812C81.5145 14.5104 81.5562 14.7187 81.5562 14.9062C81.6187 15.0729 81.6916 15.1458 81.7749 15.125C81.8582 15.1042 81.952 15.1458 82.0562 15.25C82.1187 15.5208 82.2749 15.8021 82.5249 16.0937C82.7749 16.3646 82.9728 16.6667 83.1187 17C83.1603 17.5208 83.1916 17.9896 83.2124 18.4062C83.2332 18.8021 83.1603 19.2083 82.9937 19.625C82.6812 20.3958 82.2437 21.0833 81.6812 21.6875C81.1395 22.2917 80.5145 22.8333 79.8062 23.3125C79.1187 23.7708 78.3791 24.1667 77.5874 24.5C76.7957 24.8333 76.0249 25.1146 75.2749 25.3437C75.1916 25.3229 75.1082 25.3229 75.0249 25.3437C74.9416 25.3646 74.9207 25.3125 74.9624 25.1875C74.7957 25.3333 74.6082 25.4271 74.3999 25.4687C74.2124 25.5104 74.0041 25.5208 73.7749 25.5C73.5457 25.5 73.3062 25.4896 73.0562 25.4687C72.827 25.4479 72.6082 25.4583 72.3999 25.5C72.2541 25.3542 72.1187 25.2083 71.9937 25.0625C71.8895 24.9375 71.8062 24.7708 71.7437 24.5625C71.6395 24.5625 71.5874 24.5104 71.5874 24.4062C71.6082 24.3021 71.577 24.25 71.4937 24.25C71.6187 24.0417 71.6707 23.9271 71.6499 23.9062C71.6499 23.8646 71.6187 23.8333 71.5562 23.8125C71.5145 23.7917 71.4728 23.7708 71.4312 23.75C71.3895 23.7083 71.3791 23.6562 71.3999 23.5937C71.4832 23.4271 71.5145 23.2396 71.4937 23.0312C71.4728 22.8021 71.452 22.5729 71.4312 22.3437C71.4103 22.1146 71.4207 21.8958 71.4624 21.6875C71.5249 21.4792 71.6812 21.3125 71.9312 21.1875C72.6395 21.2708 73.3062 21.25 73.9312 21.125C74.577 20.9792 75.1812 20.7812 75.7437 20.5312C76.3062 20.2812 76.8374 20.0104 77.3374 19.7187C77.8582 19.4271 78.3687 19.1667 78.8687 18.9375C78.9312 18.75 79.0145 18.5937 79.1187 18.4687C79.2437 18.3437 79.3687 18.2292 79.4937 18.125C79.6187 18.0208 79.7332 17.9062 79.8374 17.7812C79.9416 17.6562 80.0145 17.5 80.0562 17.3125C80.077 17.1667 80.0353 17.0833 79.9312 17.0625C79.8478 17.0208 79.8062 16.9375 79.8062 16.8125L79.4624 16.7187C79.0666 16.4896 78.6187 16.3021 78.1187 16.1562C77.6187 15.9896 77.1916 15.8125 76.8374 15.625C76.6082 15.75 76.3895 15.7812 76.1812 15.7187C75.9937 15.6562 75.7437 15.5937 75.4312 15.5312C74.7228 15.4896 74.0353 15.4167 73.3687 15.3125C72.7228 15.2083 72.0978 15.0208 71.4937 14.75C71.452 14.6458 71.3999 14.5521 71.3374 14.4687C71.2749 14.3854 71.1603 14.3646 70.9937 14.4062C70.8687 14.2396 70.7437 14.0833 70.6187 13.9375C70.4937 13.7708 70.3791 13.5937 70.2749 13.4062C70.3166 13.1562 70.3478 12.9479 70.3687 12.7812C70.3895 12.5937 70.327 12.4167 70.1812 12.25C70.2645 11.9792 70.327 11.7604 70.3687 11.5937C70.4103 11.4271 70.4103 11.2083 70.3687 10.9375Z" fill="white" stroke="#111111" stroke-width="2"/>
<path d="M54.9248 10.9375C55.0706 10.5 55.2998 10.125 55.6123 9.8125C55.9456 9.5 56.2998 9.23958 56.6748 9.03125C57.0706 8.80208 57.4769 8.61458 57.8936 8.46875C58.3102 8.32292 58.7061 8.19792 59.0811 8.09375C59.9144 7.73958 60.7998 7.40625 61.7373 7.09375C62.6956 6.76042 63.6644 6.46875 64.6436 6.21875C65.6436 5.96875 66.6644 5.8125 67.7061 5.75C68.7477 5.66667 69.8415 5.79167 70.9873 6.125C71.0498 6.33333 71.1436 6.53125 71.2686 6.71875C71.3936 6.90625 71.5186 7.09375 71.6436 7.28125C71.7894 7.46875 71.9144 7.65625 72.0186 7.84375C72.1227 8.01042 72.1852 8.1875 72.2061 8.375C72.4144 8.5625 72.5811 8.77083 72.7061 9C72.8311 9.20833 72.8519 9.48958 72.7686 9.84375C72.5602 10.0104 72.3519 10.1667 72.1436 10.3125C71.9561 10.4375 71.7477 10.5521 71.5186 10.6562C70.7477 10.4687 69.9665 10.4062 69.1748 10.4687C68.3831 10.5312 67.6748 10.5833 67.0498 10.625C66.8623 10.4375 66.6331 10.3437 66.3623 10.3437C66.1123 10.3437 65.8415 10.3854 65.5498 10.4687C65.279 10.5521 64.9977 10.6354 64.7061 10.7187C64.4352 10.8021 64.1748 10.8229 63.9248 10.7812C63.7165 10.9479 63.4561 11.0625 63.1436 11.125C62.8519 11.1667 62.529 11.2083 62.1748 11.25C62.154 11.3542 62.1748 11.4271 62.2373 11.4687C62.2998 11.4896 62.3102 11.5521 62.2686 11.6562C62.3936 11.8021 62.5498 11.9062 62.7373 11.9687C62.9456 12.0312 63.154 12.0937 63.3623 12.1562C63.5915 12.2187 63.7894 12.3021 63.9561 12.4062C64.1227 12.4896 64.2373 12.6354 64.2998 12.8437C64.6123 12.8437 64.8831 12.9167 65.1123 13.0625C65.3415 13.2083 65.529 13.3854 65.6748 13.5937C65.8206 13.8021 65.9248 14.0312 65.9873 14.2812C66.0706 14.5104 66.1123 14.7187 66.1123 14.9062C66.1748 15.0729 66.2477 15.1458 66.3311 15.125C66.4144 15.1042 66.5081 15.1458 66.6123 15.25C66.6748 15.5208 66.8311 15.8021 67.0811 16.0937C67.3311 16.3646 67.529 16.6667 67.6748 17C67.7165 17.5208 67.7477 17.9896 67.7686 18.4062C67.7894 18.8021 67.7165 19.2083 67.5498 19.625C67.2373 20.3958 66.7998 21.0833 66.2373 21.6875C65.6956 22.2917 65.0706 22.8333 64.3623 23.3125C63.6748 23.7708 62.9352 24.1667 62.1436 24.5C61.3519 24.8333 60.5811 25.1146 59.8311 25.3437C59.7477 25.3229 59.6644 25.3229 59.5811 25.3437C59.4977 25.3646 59.4769 25.3125 59.5186 25.1875C59.3519 25.3333 59.1644 25.4271 58.9561 25.4687C58.7686 25.5104 58.5602 25.5208 58.3311 25.5C58.1019 25.5 57.8623 25.4896 57.6123 25.4687C57.3831 25.4479 57.1644 25.4583 56.9561 25.5C56.8102 25.3542 56.6748 25.2083 56.5498 25.0625C56.4456 24.9375 56.3623 24.7708 56.2998 24.5625C56.1956 24.5625 56.1436 24.5104 56.1436 24.4062C56.1644 24.3021 56.1331 24.25 56.0498 24.25C56.1748 24.0417 56.2269 23.9271 56.2061 23.9062C56.2061 23.8646 56.1748 23.8333 56.1123 23.8125C56.0706 23.7917 56.029 23.7708 55.9873 23.75C55.9456 23.7083 55.9352 23.6562 55.9561 23.5937C56.0394 23.4271 56.0706 23.2396 56.0498 23.0312C56.029 22.8021 56.0081 22.5729 55.9873 22.3437C55.9665 22.1146 55.9769 21.8958 56.0186 21.6875C56.0811 21.4792 56.2373 21.3125 56.4873 21.1875C57.1956 21.2708 57.8623 21.25 58.4873 21.125C59.1331 20.9792 59.7373 20.7812 60.2998 20.5312C60.8623 20.2812 61.3936 20.0104 61.8936 19.7187C62.4144 19.4271 62.9248 19.1667 63.4248 18.9375C63.4873 18.75 63.5706 18.5937 63.6748 18.4687C63.7998 18.3437 63.9248 18.2292 64.0498 18.125C64.1748 18.0208 64.2894 17.9062 64.3936 17.7812C64.4977 17.6562 64.5706 17.5 64.6123 17.3125C64.6331 17.1667 64.5915 17.0833 64.4873 17.0625C64.404 17.0208 64.3623 16.9375 64.3623 16.8125L64.0186 16.7187C63.6227 16.4896 63.1748 16.3021 62.6748 16.1562C62.1748 15.9896 61.7477 15.8125 61.3936 15.625C61.1644 15.75 60.9456 15.7812 60.7373 15.7187C60.5498 15.6562 60.2998 15.5937 59.9873 15.5312C59.279 15.4896 58.5915 15.4167 57.9248 15.3125C57.279 15.2083 56.654 15.0208 56.0498 14.75C56.0081 14.6458 55.9561 14.5521 55.8936 14.4687C55.8311 14.3854 55.7165 14.3646 55.5498 14.4062C55.4248 14.2396 55.2998 14.0833 55.1748 13.9375C55.0498 13.7708 54.9352 13.5937 54.8311 13.4062C54.8727 13.1562 54.904 12.9479 54.9248 12.7812C54.9456 12.5937 54.8831 12.4167 54.7373 12.25C54.8206 11.9792 54.8831 11.7604 54.9248 11.5937C54.9665 11.4271 54.9665 11.2083 54.9248 10.9375Z" fill="white" stroke="#111111" stroke-width="2"/>
<path d="M50.1997 22.8125C50.3039 23.4375 50.2622 23.9271 50.0747 24.2812C49.908 24.6354 49.658 24.8958 49.3247 25.0625C49.0122 25.25 48.6476 25.3542 48.231 25.375C47.8143 25.3958 47.4185 25.375 47.0435 25.3125C46.8351 25.0208 46.6476 24.6562 46.481 24.2188C46.3143 23.7812 46.158 23.3333 46.0122 22.875C45.8664 22.3958 45.731 21.9271 45.606 21.4688C45.5018 21.0104 45.408 20.6042 45.3247 20.25C45.4289 20 45.4914 19.7188 45.5122 19.4062C45.5539 19.0729 45.5747 18.7396 45.5747 18.4062C45.5955 18.0729 45.606 17.7396 45.606 17.4062C45.6268 17.0521 45.658 16.7188 45.6997 16.4062C45.8455 15.5312 46.0539 14.6979 46.3247 13.9062C46.6164 13.1146 46.8455 12.2917 47.0122 11.4375C47.0539 11.25 47.033 11.0729 46.9497 10.9062C46.8872 10.7396 46.8768 10.5833 46.9185 10.4375C46.9393 10.3542 47.0018 10.3021 47.106 10.2812C47.2101 10.2396 47.2726 10.1667 47.2935 10.0625C47.356 9.83333 47.3664 9.64583 47.3247 9.5C47.3039 9.35417 47.3455 9.17708 47.4497 8.96875C47.5539 8.80208 47.6789 8.5625 47.8247 8.25C47.9914 7.91667 48.0539 7.57292 48.0122 7.21875C48.1997 7.09375 48.3768 6.94792 48.5435 6.78125C48.7101 6.61458 48.8768 6.46875 49.0435 6.34375C49.231 6.19792 49.4289 6.07292 49.6372 5.96875C49.8664 5.86458 50.1372 5.8125 50.4497 5.8125C50.6164 6.02083 50.7205 6.25 50.7622 6.5C50.8247 6.75 50.8768 7 50.9185 7.25C50.981 7.5 51.0643 7.73958 51.1685 7.96875C51.2726 8.17708 51.4497 8.34375 51.6997 8.46875C51.6997 8.63542 51.6997 8.84375 51.6997 9.09375C51.6997 9.34375 51.7101 9.59375 51.731 9.84375C51.7518 10.0729 51.7935 10.2917 51.856 10.5C51.9393 10.6875 52.0643 10.8125 52.231 10.875C51.856 11.875 51.5018 12.8646 51.1685 13.8438C50.856 14.8229 50.5955 15.8125 50.3872 16.8125C50.1789 17.7917 50.0435 18.7812 49.981 19.7812C49.9393 20.7812 50.0122 21.7917 50.1997 22.8125Z" fill="white" stroke="#111111" stroke-width="2"/>
<path d="M37.8496 19.5C37.8288 19.7917 37.7559 20.0729 37.6309 20.3438C37.5267 20.5938 37.3913 20.8438 37.2246 21.0938C37.0579 21.3229 36.8704 21.5521 36.6621 21.7812C36.4746 21.9896 36.2871 22.1771 36.0996 22.3438C36.1621 22.6146 36.1621 22.8229 36.0996 22.9688C36.0579 23.0938 36.0475 23.2917 36.0684 23.5625C35.7559 24.3958 35.2767 24.9479 34.6309 25.2188C34.0059 25.5104 33.4121 25.4583 32.8496 25.0625C32.6204 24.8958 32.4225 24.6875 32.2559 24.4375C32.11 24.1667 31.9017 24 31.6309 23.9375C31.6934 23.5833 31.6621 23.2292 31.5371 22.875C31.4121 22.5208 31.2767 22.3333 31.1309 22.3125C31.0684 21.875 30.9746 21.4062 30.8496 20.9062C30.7246 20.4062 30.61 19.9062 30.5059 19.4062C30.4017 18.8854 30.3079 18.3854 30.2246 17.9062C30.1621 17.4062 30.1413 16.9479 30.1621 16.5312C30.1829 16.3229 30.1413 16.1354 30.0371 15.9688C29.9538 15.8021 29.8913 15.6042 29.8496 15.375C29.7663 14.8958 29.735 14.3958 29.7559 13.875C29.7975 13.3333 29.8184 12.8229 29.8184 12.3438C29.8184 11.8854 29.7871 11.3958 29.7246 10.875C29.6829 10.3333 29.6413 9.82292 29.5996 9.34375C29.5579 8.84375 29.5371 8.39583 29.5371 8C29.5371 7.58333 29.5892 7.26042 29.6934 7.03125C29.8184 6.78125 29.985 6.58333 30.1934 6.4375C30.4225 6.27083 30.6309 6.09375 30.8184 5.90625C31.2767 5.94792 31.6413 6.13542 31.9121 6.46875C32.1829 6.80208 32.2871 7.11458 32.2246 7.40625C32.6621 7.67708 33.0059 8.03125 33.2559 8.46875C33.5267 8.88542 33.735 9.36458 33.8809 9.90625C34.0475 10.4271 34.1621 10.9896 34.2246 11.5938C34.2871 12.1771 34.3392 12.7604 34.3809 13.3438C34.4225 13.9062 34.4642 14.4479 34.5059 14.9688C34.5475 15.4896 34.6309 15.9375 34.7559 16.3125C35.5267 15.2083 36.1725 14.2292 36.6934 13.375C37.2142 12.5 37.7454 11.6667 38.2871 10.875C38.8288 10.0833 39.4329 9.28125 40.0996 8.46875C40.7663 7.65625 41.6309 6.73958 42.6934 5.71875C42.9017 5.73958 43.0684 5.78125 43.1934 5.84375C43.3392 5.90625 43.4642 5.95833 43.5684 6C43.6725 6.04167 43.7975 6.08333 43.9434 6.125C44.0892 6.14583 44.2871 6.13542 44.5371 6.09375C44.6204 6.30208 44.6829 6.45833 44.7246 6.5625C44.7663 6.64583 44.7975 6.73958 44.8184 6.84375C44.86 6.92708 44.9017 7.04167 44.9434 7.1875C45.0059 7.33333 45.0996 7.54167 45.2246 7.8125C45.2871 7.875 45.3079 7.95833 45.2871 8.0625C45.2663 8.16667 45.2454 8.27083 45.2246 8.375C45.2246 8.45833 45.2246 8.52083 45.2246 8.5625C45.2246 8.60417 45.2767 8.60417 45.3809 8.5625C45.3184 8.85417 45.2038 9.125 45.0371 9.375C44.8913 9.60417 44.8288 9.88542 44.8496 10.2188C44.3704 10.8438 43.8392 11.4896 43.2559 12.1562C42.6934 12.8229 42.1204 13.5104 41.5371 14.2188C40.9746 14.9271 40.4329 15.6771 39.9121 16.4688C39.3913 17.2396 38.9434 18.0521 38.5684 18.9062C38.4642 18.9062 38.3809 18.9375 38.3184 19C38.2767 19.0625 38.235 19.1354 38.1934 19.2188C38.1517 19.2812 38.0996 19.3438 38.0371 19.4062C37.9954 19.4688 37.9329 19.5 37.8496 19.5Z" fill="white" stroke="#111111" stroke-width="2"/>
<path d="M2.62484 19.2812C2.64567 19.1979 2.65609 19.1354 2.65609 19.0938C2.67692 19.0521 2.64567 19 2.56234 18.9375C2.52067 18.7917 2.55192 18.6979 2.65609 18.6562C2.76025 18.6146 2.86442 18.5729 2.96859 18.5312C3.07275 17.2812 3.28109 16.1458 3.59359 15.125C3.92692 14.0833 4.28109 13.0729 4.65609 12.0938C5.05192 11.1146 5.43734 10.1354 5.81234 9.15625C6.20817 8.15625 6.53109 7.07292 6.78109 5.90625C7.05192 5.63542 7.27067 5.3125 7.43734 4.9375C7.62484 4.5625 7.80192 4.1875 7.96859 3.8125C8.15609 3.41667 8.36442 3.04167 8.59359 2.6875C8.84359 2.33333 9.17692 2.04167 9.59359 1.8125C9.78109 1.83333 9.94775 1.875 10.0936 1.9375C10.2603 1.97917 10.4165 2.03125 10.5623 2.09375C10.7082 2.15625 10.8644 2.20833 11.0311 2.25C11.1978 2.29167 11.3748 2.3125 11.5623 2.3125C11.6457 2.41667 11.7186 2.54167 11.7811 2.6875C11.8436 2.8125 11.9269 2.92708 12.0311 3.03125L12.5936 2.9375C12.8644 3.16667 13.104 3.45833 13.3123 3.8125C13.5207 4.14583 13.6665 4.5 13.7498 4.875C13.8332 5.22917 13.8228 5.58333 13.7186 5.9375C13.6144 6.27083 13.3748 6.53125 12.9998 6.71875C13.0207 6.84375 13.0207 6.9375 12.9998 7C12.979 7.0625 12.9478 7.125 12.9061 7.1875C12.8853 7.22917 12.8748 7.28125 12.8748 7.34375C12.8748 7.38542 12.9165 7.44792 12.9998 7.53125C12.7707 7.71875 12.5623 7.95833 12.3748 8.25C12.1873 8.52083 12.0311 8.8125 11.9061 9.125C11.7811 9.4375 11.6769 9.75 11.5936 10.0625C11.5311 10.375 11.4894 10.6667 11.4686 10.9375C12.0728 10.3125 12.7811 9.72917 13.5936 9.1875C14.4061 8.64583 15.1144 8.13542 15.7186 7.65625C16.1978 7.32292 16.6144 7.01042 16.9686 6.71875C17.3436 6.40625 17.7186 6.125 18.0936 5.875C18.4686 5.60417 18.854 5.35417 19.2498 5.125C19.6665 4.875 20.0832 4.60417 20.4998 4.3125C20.7082 4.22917 20.8644 4.20833 20.9686 4.25C21.0936 4.29167 21.2082 4.34375 21.3123 4.40625C21.3332 4.26042 21.3019 4.17708 21.2186 4.15625C21.1353 4.11458 21.104 4.01042 21.1248 3.84375C21.479 3.73958 21.7915 3.61458 22.0623 3.46875C22.354 3.32292 22.6561 3.1875 22.9686 3.0625C23.1769 3.29167 23.3853 3.54167 23.5936 3.8125C23.8019 4.0625 24.0832 4.19792 24.4373 4.21875C24.5623 4.48958 24.7082 4.69792 24.8748 4.84375C25.0623 4.96875 25.2394 5.09375 25.4061 5.21875C25.5936 5.34375 25.7498 5.5 25.8748 5.6875C25.9998 5.85417 26.0728 6.125 26.0936 6.5C26.0103 6.66667 25.9061 6.85417 25.7811 7.0625C25.6769 7.25 25.5832 7.48958 25.4998 7.78125C24.9998 8.23958 24.4894 8.64583 23.9686 9C23.4686 9.33333 22.9478 9.65625 22.4061 9.96875C21.8853 10.2812 21.3436 10.6042 20.7811 10.9375C20.2394 11.2708 19.6873 11.6562 19.1248 12.0938C18.9998 12.2812 18.8436 12.4479 18.6561 12.5938C18.4686 12.7396 18.2707 12.8854 18.0623 13.0312C17.8748 13.1562 17.6873 13.2917 17.4998 13.4375C17.3332 13.5833 17.1978 13.7604 17.0936 13.9688C17.0103 13.9688 16.9373 13.9792 16.8748 14C16.8123 14 16.7394 14.0104 16.6561 14.0312C16.5728 14.1979 16.4478 14.3333 16.2811 14.4375C16.1353 14.5417 16.0311 14.6771 15.9686 14.8438C16.3436 15.6562 16.8332 16.2708 17.4373 16.6875C18.0415 17.1042 18.7186 17.4062 19.4686 17.5938C20.2186 17.7812 21.0311 17.8854 21.9061 17.9062C22.7811 17.9271 23.6873 17.9375 24.6248 17.9375C24.729 17.9167 24.7707 17.8646 24.7498 17.7812C24.7498 17.6771 24.8123 17.6354 24.9373 17.6562C25.2498 17.7604 25.5103 17.8854 25.7186 18.0312C25.9269 18.1771 26.1248 18.3333 26.3123 18.5C26.4998 18.6667 26.6769 18.8438 26.8436 19.0312C27.0311 19.1979 27.2394 19.375 27.4686 19.5625C27.4269 20.5417 27.1353 21.3438 26.5936 21.9688C26.0728 22.5729 25.3748 23.0625 24.4998 23.4375C23.2915 23.4792 22.2394 23.4479 21.3436 23.3438C20.4478 23.2396 19.5623 23.0104 18.6873 22.6562C18.6248 22.6354 18.5623 22.5729 18.4998 22.4688C18.4582 22.3646 18.4165 22.2917 18.3748 22.25C18.2082 22.1458 18.0207 22.1042 17.8123 22.125C17.604 22.1458 17.4269 22.125 17.2811 22.0625C17.0936 21.9792 16.7811 21.7917 16.3436 21.5C15.9269 21.2083 15.5415 20.9375 15.1873 20.6875C14.7498 20.3333 14.3228 19.9896 13.9061 19.6562C13.5103 19.3021 13.1561 18.9167 12.8436 18.5C12.7811 18.3958 12.6873 18.3438 12.5623 18.3438C12.4582 18.3438 12.354 18.3125 12.2498 18.25C11.5207 18.7083 10.9061 19.2812 10.4061 19.9688C9.92692 20.6354 9.45817 21.3229 8.99984 22.0312C8.5415 22.7188 8.05192 23.375 7.53109 24C7.03109 24.6042 6.39567 25.0729 5.62484 25.4062C5.39567 25.4062 5.19775 25.3646 5.03109 25.2812C4.86442 25.2188 4.70817 25.125 4.56234 25C4.4165 24.8958 4.27067 24.7917 4.12484 24.6875C3.979 24.5833 3.81234 24.5104 3.62484 24.4688C3.62484 24.1771 3.56234 23.9062 3.43734 23.6562C3.33317 23.3854 3.21859 23.1458 3.09359 22.9375C2.98942 22.7083 2.90609 22.4896 2.84359 22.2812C2.80192 22.0729 2.86442 21.8646 3.03109 21.6562C2.80192 21.4688 2.58317 21.3125 2.37484 21.1875C2.52067 21.0417 2.58317 20.9062 2.56234 20.7812C2.56234 20.6562 2.53109 20.5312 2.46859 20.4062C2.40609 20.2812 2.354 20.1562 2.31234 20.0312C2.2915 19.8854 2.33317 19.7292 2.43734 19.5625C2.52067 19.5417 2.55192 19.5 2.53109 19.4375C2.53109 19.375 2.56234 19.3229 2.62484 19.2812Z" fill="white" stroke="#111111" stroke-width="2"/>
</svg>
