<svg width="49" height="52" viewBox="0 0 49 52" fill="none" xmlns="http://www.w3.org/2000/svg">
<g clip-path="url(#clip0_98_376)">
<path d="M36.1077 12.4256C27.5107 14.041 18.9894 16.0201 10.5289 18.2719C9.87677 18.4438 9.9803 17.5876 10.1241 17.2375C10.3825 16.6154 10.9593 16.0967 11.5978 15.9182C20.0434 13.5585 28.6024 11.6228 37.2127 9.99707C37.8857 9.86874 37.7948 10.664 37.628 11.0617C37.376 11.6533 36.7604 12.3043 36.1077 12.4256V12.4256Z" fill="#0D0C22"/>
<path d="M36.7772 21.3575C33.5644 23.2975 30.3516 25.2374 27.1353 27.1673C26.7572 27.3959 26.0781 27.5716 26.0662 26.9198C26.0544 26.268 26.6458 25.5802 27.1477 25.2686C30.3603 23.3118 33.5696 21.3617 36.7889 19.4082C37.1772 19.176 37.8764 18.9933 37.8885 19.6619C37.9006 20.3306 37.2993 21.0389 36.7805 21.3507L36.7772 21.3575Z" fill="#0D0C22"/>
<path d="M40.2475 31.1627C34.9493 36.6607 29.6614 42.172 24.3429 47.6602C24.0534 47.9652 23.324 48.6788 22.8635 48.2803C22.4268 47.9018 22.9852 47.0049 23.2547 46.7239C28.5358 41.2093 33.834 35.7113 39.1355 30.2065C39.435 29.898 40.1743 29.164 40.6451 29.5758C41.0885 29.9576 40.5203 30.8749 40.2374 31.1663L40.2475 31.1627Z" fill="#0D0C22"/>
</g>
<defs>
<clipPath id="clip0_98_376">
<rect width="40.8432" height="33.2796" fill="white" transform="matrix(-0.434636 0.900606 0.900606 0.434636 18.125 0.659454)"/>
</clipPath>
</defs>
</svg>
