<svg width="38" height="41" viewBox="0 0 38 41" fill="none" xmlns="http://www.w3.org/2000/svg">
<g clip-path="url(#clip0_98_372)">
<path d="M2.19042 14.4881L6.64589 7.56959L8.80401 4.22331C9.56443 3.04511 10.4159 1.88844 11.0746 0.651072C11.3156 0.204543 10.8657 0.0162475 10.4802 0.000107898C9.97678 -0.0214116 9.33952 0.188403 9.02892 0.602653C8.17746 1.73243 7.46522 2.98594 6.69944 4.17489L4.54132 7.52117L0.0804979 14.4397C-0.208679 14.8862 0.332189 15.0906 0.696338 15.1068C1.18365 15.1283 1.9066 14.9239 2.19042 14.4827V14.4881Z" fill="#0D0C22"/>
<path d="M10.7317 22.0521C19.5088 19.1631 28.318 16.3548 37.0629 13.3636C37.3682 13.2614 38.1072 12.9978 37.9894 12.5405C37.8715 12.1047 37.0683 12.2015 36.7791 12.293C27.9699 15.0798 19.2143 18.0441 10.4372 20.9385C10.1159 21.0461 9.34477 21.3204 9.47329 21.7992C9.5911 22.2511 10.4372 22.1597 10.7371 22.0575L10.7317 22.0521Z" fill="#0D0C22"/>
<path d="M8.9432 32.1394L15.7817 36.524L19.1447 38.6813C20.3014 39.4237 21.4421 40.2361 22.647 40.8924C23.0593 41.113 23.6966 40.9462 24.0768 40.7472C24.2749 40.6449 24.9015 40.2038 24.5373 39.9294C23.4342 39.0955 22.2186 38.3961 21.0565 37.6537L17.6935 35.4964L10.7425 31.0365C10.1213 30.6384 8.02747 31.553 8.93784 32.1394H8.9432Z" fill="#0D0C22"/>
</g>
<defs>
<clipPath id="clip0_98_372">
<rect width="38" height="41" fill="white"/>
</clipPath>
</defs>
</svg>
