<svg width="128" height="17" viewBox="0 0 128 17" fill="none" xmlns="http://www.w3.org/2000/svg">
<g clip-path="url(#clip0_134_42)">
<path d="M32.0336 2.20634L68.8406 2.17584L105.481 2.14533C112.418 2.14533 119.354 2.125 126.298 2.13517L127.252 0C110.855 0.80323 94.458 1.77931 78.0674 2.91806C61.6835 4.05682 45.3063 5.37859 28.9358 6.85287C19.749 7.6866 10.569 8.561 1.38892 9.49641C0.954956 9.53708 0.193846 9.94378 0.033612 10.6352C-0.126622 11.3266 0.354079 11.5909 0.741311 11.6011L49.6727 13.36C65.9831 13.9498 82.2936 14.5395 98.604 15.119C107.811 15.4545 117.024 15.7799 126.231 16.1053L127.192 13.9701C121.411 14.2751 115.629 14.5801 109.84 14.8852C109.313 14.9157 108.518 15.1292 108.231 15.9019C107.958 16.6238 108.465 17.0203 108.892 17C114.674 16.7051 120.449 16.4103 126.231 16.1154C126.765 16.0849 127.566 15.8714 127.867 15.0885C128.167 14.3056 127.62 13.9904 127.192 13.9803C110.882 13.3804 94.5715 12.8008 78.261 12.2213C61.9506 11.6417 45.6401 11.052 29.3297 10.4725L1.70271 9.47608L1.0551 11.5807C17.3188 9.92345 33.5959 8.41866 49.873 7.09689C66.1434 5.77512 82.4204 4.6262 98.7042 3.63995C107.898 3.08074 117.091 2.58254 126.284 2.13517C126.819 2.10466 127.62 1.89115 127.92 1.10825C128.221 0.325359 127.68 0 127.252 0C114.981 0.0305024 102.71 0.0305024 90.4455 0.0406699L53.8054 0.0711722L32.9883 0.0915072C32.4676 0.0915072 31.6597 0.355861 31.3726 1.10825C31.0856 1.86065 31.613 2.20634 32.0336 2.20634V2.20634Z" fill="black"/>
</g>
<defs>
<clipPath id="clip0_134_42">
<rect width="128" height="17" fill="white"/>
</clipPath>
</defs>
</svg>
